<svg
  xmlns="http://www.w3.org/2000/svg"
  width="1200"
  height="630"
  viewBox="0 0 1200 630"
  role="img"
  aria-labelledby="title desc"
>
  <title id="title">AI coding governance architecture</title>
  <desc id="desc">
    A technical architecture diagram showing core rules, skills, policies,
    memory, adapters, and AI workflows.
  </desc>
  <rect width="1200" height="630" fill="#0f172a" />
  <rect
    x="72"
    y="64"
    width="1056"
    height="502"
    rx="28"
    fill="#111827"
    stroke="#334155"
    stroke-width="2"
  />
  <text
    x="100"
    y="126"
    fill="#f8fafc"
    font-family="Inter, Arial, sans-serif"
    font-size="42"
    font-weight="700"
  >
    AI Engineering Governance
  </text>
  <text
    x="100"
    y="168"
    fill="#cbd5e1"
    font-family="Inter, Arial, sans-serif"
    font-size="22"
  >
    Operational standards for AI-assisted software development
  </text>
  <g font-family="Inter, Arial, sans-serif" font-size="24" font-weight="700">
    <rect x="140" y="230" width="220" height="62" rx="10" fill="#1d4ed8" />
    <text x="250" y="270" fill="#ffffff" text-anchor="middle">Core Rules</text>
    <rect x="410" y="230" width="160" height="62" rx="10" fill="#0f766e" />
    <text x="490" y="270" fill="#ffffff" text-anchor="middle">Skills</text>
    <rect x="620" y="230" width="180" height="62" rx="10" fill="#7c3aed" />
    <text x="710" y="270" fill="#ffffff" text-anchor="middle">Policies</text>
    <rect x="850" y="230" width="180" height="62" rx="10" fill="#b45309" />
    <text x="940" y="270" fill="#ffffff" text-anchor="middle">Memory</text>
  </g>
  <g stroke="#94a3b8" stroke-width="3" fill="none" marker-end="url(#arrow)">
    <path d="M360 261h50" />
    <path d="M570 261h50" />
    <path d="M800 261h50" />
    <path d="M940 292v58" />
    <path d="M940 412v58" />
  </g>
  <defs>
    <marker
      id="arrow"
      markerWidth="10"
      markerHeight="10"
      refX="8"
      refY="3"
      orient="auto"
    >
      <path d="M0,0 L0,6 L9,3 z" fill="#94a3b8" />
    </marker>
  </defs>
  <g font-family="Inter, Arial, sans-serif" font-size="24" font-weight="700">
    <rect x="835" y="350" width="210" height="62" rx="10" fill="#334155" />
    <text x="940" y="390" fill="#ffffff" text-anchor="middle">Adapters</text>
    <rect x="785" y="470" width="310" height="62" rx="10" fill="#0369a1" />
    <text x="940" y="510" fill="#ffffff" text-anchor="middle">
      AI Workflows
    </text>
  </g>
  <text
    x="100"
    y="520"
    fill="#e2e8f0"
    font-family="Inter, Arial, sans-serif"
    font-size="26"
    font-weight="600"
  >
    AGENTS.md • Safety Gates • Context Discipline • Project Memory
  </text>
</svg>
